<svg xmlns="http://www.w3.org/2000/svg" viewBox="0 0 1148.58 424.78"><defs><style>.cls-1{font-size:387.93px;font-family:Barlow-BoldItalic, Barlow;font-weight:700;font-style:italic;letter-spacing:0.03em;}.cls-1,.cls-5{fill:#ac0000;}.cls-2{letter-spacing:-0.01em;}.cls-3{letter-spacing:0.03em;}.cls-4{fill:gray;}</style></defs><title>Asset 7</title><g id="Layer_2" data-name="Layer 2"><g id="Layer_1-2" data-name="Layer 1"><text class="cls-1" transform="translate(368.46 329.74)">F<tspan class="cls-2" x="220.34" y="0">W</tspan><tspan class="cls-3" x="541.94" y="0">G</tspan></text><path class="cls-4" d="M25.09,282.78q3.12,4.8,6.56,9.37H146q-1.86-4.77-4-9.37Z"/><path class="cls-4" d="M43.66,306.26q4.7,4.89,9.8,9.37h99.73c-.72-3.17-1.54-6.29-2.43-9.37Z"/><path class="cls-4" d="M33.47,294.52q3.81,4.83,8,9.37H150.06q-1.45-4.75-3.17-9.37Z"/><path class="cls-4" d="M18.21,271q2.53,4.79,5.39,9.37H140.87q-2.33-4.79-5-9.37Z"/><path class="cls-4" d="M8.13,247.56q1.59,4.75,3.48,9.37H126.79q-3.53-4.85-7.42-9.37Z"/><path class="cls-4" d="M12.59,259.3q2,4.77,4.39,9.37H134.53q-2.86-4.82-6.05-9.37Z"/><path class="cls-4" d="M56.22,318q5.94,5,12.36,9.37h86.86q-.75-4.74-1.74-9.37Z"/><path class="cls-4" d="M6.38,153.64Q5,158.27,3.93,163H104.71q5.07-4.45,9.71-9.37Z"/><path class="cls-4" d="M7.35,245.19H117.29q-4.4-4.91-9.22-9.37H4.7Q5.89,240.56,7.35,245.19Z"/><path class="cls-4" d="M119.05,45.62h38c0-1.53.06-3.06.06-4.6V41h0A157.37,157.37,0,0,0,119.05,45.62Z"/><path class="cls-4" d="M72.14,329.74a158.54,158.54,0,0,0,16.71,9.37h68q-.42-4.74-1.08-9.37Z"/><path class="cls-4" d="M2.24,224.08c.54,3.15,1.16,6.28,1.88,9.37H105.46a142.38,142.38,0,0,0-11.84-9.37Z"/><path class="cls-4" d="M94,341.47a155.78,155.78,0,0,0,28.53,9.38h35q-.1-4.73-.47-9.38Z"/><path class="cls-4" d="M157.08,354.66h.51c0-.48,0-1,0-1.45H135.74A158.13,158.13,0,0,0,157.08,354.66Z"/><path class="cls-4" d="M38.58,94.94q-3.94,4.55-7.55,9.37H145.44c1.2-3.07,2.33-6.19,3.35-9.37Z"/><path class="cls-4" d="M29.3,106.68q-3.27,4.57-6.22,9.37H140.3q2.23-4.59,4.19-9.37Z"/><path class="cls-4" d="M49.93,83.2q-4.82,4.5-9.25,9.37H149.53q1.42-4.62,2.59-9.37Z"/><path class="cls-4" d="M21.66,118.42q-2.7,4.59-5.1,9.37H133.94q2.75-4.58,5.18-9.37Z"/><path class="cls-4" d="M110.53,48a156.58,156.58,0,0,0-23.35,9.38H156.4c.28-3.1.47-6.23.59-9.38Z"/><path class="cls-4" d="M64.07,71.46c-4,3-7.85,6.07-11.54,9.37H152.68c.71-3.08,1.33-6.21,1.87-9.37Z"/><path class="cls-4" d="M82.6,59.72a159.63,159.63,0,0,0-15.22,9.37H155q.74-4.64,1.21-9.37Z"/><path class="cls-4" d="M0,200.6q.09,4.72.45,9.37H68.56a141.81,141.81,0,0,0-30.79-9.37Z"/><path class="cls-4" d="M15.39,130.16q-2.21,4.6-4.12,9.37H126.16q3.33-4.54,6.33-9.37Z"/><path class="cls-4" d="M1.39,177.12c-.41,3.1-.74,6.22-1,9.37H67.48a139.19,139.19,0,0,0,18.13-9.37Z"/><path class="cls-4" d="M.7,212.34c.29,3.15.67,6.28,1.15,9.37H90.16a139.57,139.57,0,0,0-16.42-9.37Z"/><path class="cls-4" d="M61.58,188.86H.27C.1,191.9,0,195,0,198.05v0H0s0,.09,0,.13H16.33c-2-.08-4-.13-6-.14A147.38,147.38,0,0,0,61.58,188.86Z"/><path class="cls-4" d="M3.41,165.38c-.65,3.09-1.22,6.22-1.69,9.37h87.6a141.14,141.14,0,0,0,12.62-9.37Z"/><path class="cls-4" d="M10.35,141.9c-1.18,3.08-2.28,6.2-3.27,9.37H116.61q4.08-4.5,7.78-9.37Z"/><path class="cls-5" d="M173.94,306.26q1.53,4.62,2.78,9.37H187c.83-3.17,1.77-6.29,2.79-9.37Z"/><path class="cls-5" d="M169.52,294.52q1.95,4.61,3.61,9.37h17.5q1.67-4.75,3.61-9.37Z"/><path class="cls-5" d="M164,282.78q2.41,4.59,4.53,9.37h26.78q2.11-4.77,4.53-9.37Z"/><path class="cls-5" d="M110.58,224.08a158.36,158.36,0,0,1,12.87,9.37H240.31a158.36,158.36,0,0,1,12.87-9.37Z"/><path class="cls-5" d="M148.83,259.3q3.55,4.54,6.76,9.37h52.58q3.21-4.82,6.76-9.37Z"/><path class="cls-5" d="M138.74,247.56q4.29,4.51,8.21,9.37h69.86q3.93-4.85,8.21-9.37Z"/><path class="cls-5" d="M157.14,271q2.94,4.57,5.56,9.37h38.36q2.63-4.79,5.56-9.37Z"/><path class="cls-5" d="M126.32,235.82q5.27,4.45,10.12,9.37h90.88q4.86-4.91,10.13-9.37Z"/><path class="cls-5" d="M24.34,198.14h-.05v.09H338.46V198a156.63,156.63,0,0,1-52.78-9.13H77.62A156.78,156.78,0,0,1,24.34,198.14Z"/><path class="cls-5" d="M181.85,353.21c0,.66,0,1.3,0,2h0c0-.66,0-1.3,0-2Z"/><path class="cls-5" d="M179.74,329.74c.51,3.09.94,6.21,1.27,9.37h1.74q.5-4.74,1.28-9.37Z"/><path class="cls-5" d="M181.23,341.47c.28,3.1.48,6.23.57,9.38H182q.15-4.73.57-9.38Z"/><path class="cls-5" d="M177.32,318c.76,3.09,1.44,6.21,2,9.37h5.1q.87-4.74,2-9.37Z"/><path class="cls-5" d="M89.14,212.34a156.4,156.4,0,0,1,17.7,9.37H256.91a157.54,157.54,0,0,1,17.72-9.37Z"/><path class="cls-5" d="M175.69,83.2q-1.32,4.76-2.92,9.37h17.41q-1.62-4.62-2.94-9.37Z"/><path class="cls-5" d="M171.93,94.94q-1.74,4.77-3.78,9.37H194.8c-1.35-3.07-2.63-6.19-3.79-9.37Z"/><path class="cls-5" d="M178.47,71.46c-.62,3.16-1.33,6.29-2.14,9.37H186.6c-.81-3.08-1.53-6.21-2.15-9.37Z"/><path class="cls-5" d="M167.09,106.68q-2.21,4.77-4.7,9.37h38.19q-2.51-4.59-4.71-9.37Z"/><path class="cls-5" d="M180.31,59.72q-.56,4.74-1.39,9.37H184q-.84-4.64-1.4-9.37Z"/><path class="cls-5" d="M181.42,41v0c0,1.53,0,3.05-.07,4.57h.2c-.05-1.54-.08-3.07-.08-4.62Z"/><path class="cls-5" d="M181.26,48q-.19,4.73-.68,9.38h1.74c-.32-3.1-.54-6.23-.68-9.38Z"/><path class="cls-5" d="M144.77,141.9q-4.08,4.86-8.52,9.37h90.53q-4.44-4.5-8.53-9.37Z"/><path class="cls-5" d="M120.34,165.38a156.31,156.31,0,0,1-13.52,9.37H256.3a156.94,156.94,0,0,1-13.56-9.37Z"/><path class="cls-5" d="M102.87,177.12a156.43,156.43,0,0,1-19.1,9.37h195.7a157.2,157.2,0,0,1-19.21-9.37Z"/><path class="cls-5" d="M161.07,118.42c-1.81,3.2-3.74,6.32-5.76,9.37h52.37q-3-4.58-5.78-9.37Z"/><path class="cls-5" d="M133.86,153.64q-5.06,4.92-10.53,9.37H239.74q-5.49-4.44-10.56-9.37Z"/><path class="cls-5" d="M49.89,200.6A155.89,155.89,0,0,1,83.57,210H280.19a155.89,155.89,0,0,1,33.68-9.37Z"/><path class="cls-5" d="M153.71,130.16q-3.33,4.82-7,9.37H216.3q-3.68-4.54-7-9.37Z"/></g></g></svg>