<svg xmlns="http://www.w3.org/2000/svg" viewBox="0 0 824.92 314.2"><defs><style>.cls-1{font-size:245.03px;font-family:Barlow-BoldItalic, Barlow;font-weight:700;font-style:italic;}.cls-1,.cls-4{fill:#a80404;}.cls-2{letter-spacing:-0.03em;}.cls-3{fill:#2d2d2d;}</style></defs><title>Asset 6</title><g id="Layer_2" data-name="Layer 2"><g id="Layer_1-2" data-name="Layer 1"><text class="cls-1" transform="translate(350.3 241.71)">F<tspan class="cls-2" x="133.05" y="0">W</tspan><tspan x="330.05" y="0">G</tspan></text><path class="cls-3" d="M25.09,241.81q3.12,4.8,6.56,9.37H146q-1.86-4.77-4-9.37Z"/><path class="cls-3" d="M43.66,265.29q4.7,4.89,9.8,9.37h99.73c-.72-3.17-1.54-6.29-2.43-9.37Z"/><path class="cls-3" d="M33.47,253.55q3.81,4.84,8,9.37H150.06q-1.45-4.76-3.17-9.37Z"/><path class="cls-3" d="M18.21,230.07q2.53,4.78,5.39,9.37H140.87q-2.33-4.78-5-9.37Z"/><path class="cls-3" d="M8.13,206.59q1.59,4.75,3.48,9.37H126.79q-3.53-4.85-7.42-9.37Z"/><path class="cls-3" d="M12.59,218.33q2,4.77,4.39,9.37H134.53q-2.86-4.81-6.05-9.37Z"/><path class="cls-3" d="M56.22,277q5.94,5,12.36,9.37h86.86q-.75-4.74-1.74-9.37Z"/><path class="cls-3" d="M6.38,112.67Q5,117.31,3.93,122H104.71q5.07-4.44,9.71-9.37Z"/><path class="cls-3" d="M7.35,204.22H117.29q-4.4-4.91-9.22-9.37H4.7Q5.89,199.59,7.35,204.22Z"/><path class="cls-3" d="M119.05,4.65h38c0-1.53.06-3.06.06-4.6V0h0A157.37,157.37,0,0,0,119.05,4.65Z"/><path class="cls-3" d="M72.14,288.77a158.54,158.54,0,0,0,16.71,9.37h68q-.42-4.74-1.08-9.37Z"/><path class="cls-3" d="M2.24,183.11c.54,3.15,1.16,6.28,1.88,9.37H105.46a142.38,142.38,0,0,0-11.84-9.37Z"/><path class="cls-3" d="M94,300.51a156.52,156.52,0,0,0,28.53,9.37h35c-.07-3.15-.23-6.28-.47-9.37Z"/><path class="cls-3" d="M157.08,313.7h.51c0-.48,0-1,0-1.44H135.74A159.78,159.78,0,0,0,157.08,313.7Z"/><path class="cls-3" d="M38.58,54Q34.64,58.52,31,63.34H145.44c1.2-3.07,2.33-6.19,3.35-9.37Z"/><path class="cls-3" d="M29.3,65.71Q26,70.29,23.08,75.08H140.3q2.23-4.59,4.19-9.37Z"/><path class="cls-3" d="M49.93,42.23q-4.82,4.5-9.25,9.37H149.53Q151,47,152.12,42.23Z"/><path class="cls-3" d="M21.66,77.45Q19,82,16.56,86.82H133.94q2.75-4.57,5.18-9.37Z"/><path class="cls-3" d="M110.53,7a155.47,155.47,0,0,0-23.35,9.37H156.4c.28-3.1.47-6.23.59-9.37Z"/><path class="cls-3" d="M64.07,30.49c-4,2.95-7.85,6.08-11.54,9.38H152.68q1.06-4.63,1.87-9.38Z"/><path class="cls-3" d="M82.6,18.75a157.71,157.71,0,0,0-15.22,9.38H155c.49-3.1.89-6.22,1.21-9.38Z"/><path class="cls-3" d="M0,159.63q.09,4.73.45,9.37H68.56a142.36,142.36,0,0,0-30.79-9.37Z"/><path class="cls-3" d="M15.39,89.19q-2.21,4.61-4.12,9.37H126.16q3.33-4.55,6.33-9.37Z"/><path class="cls-3" d="M1.39,136.15c-.41,3.1-.74,6.22-1,9.37H67.48a139.19,139.19,0,0,0,18.13-9.37Z"/><path class="cls-3" d="M.7,171.37c.29,3.15.67,6.28,1.15,9.37H90.16a139.57,139.57,0,0,0-16.42-9.37Z"/><path class="cls-3" d="M61.58,147.89H.27C.1,150.93,0,154,0,157.08v0H0c0,.05,0,.09,0,.13H16.33c-2-.08-4-.13-6-.14A147.38,147.38,0,0,0,61.58,147.89Z"/><path class="cls-3" d="M3.41,124.41c-.65,3.09-1.22,6.22-1.69,9.37h87.6a141.14,141.14,0,0,0,12.62-9.37Z"/><path class="cls-3" d="M10.35,100.93c-1.18,3.08-2.28,6.2-3.27,9.37H116.61q4.08-4.5,7.78-9.37Z"/><path class="cls-4" d="M173.94,265.29q1.53,4.62,2.78,9.37H187c.83-3.17,1.77-6.29,2.79-9.37Z"/><path class="cls-4" d="M169.52,253.55q1.95,4.6,3.61,9.37h17.5q1.67-4.76,3.61-9.37Z"/><path class="cls-4" d="M164,241.81q2.41,4.59,4.53,9.37h26.78q2.11-4.77,4.53-9.37Z"/><path class="cls-4" d="M110.58,183.11a158.36,158.36,0,0,1,12.87,9.37H240.31a158.36,158.36,0,0,1,12.87-9.37Z"/><path class="cls-4" d="M148.83,218.33q3.55,4.54,6.76,9.37h52.58q3.21-4.81,6.76-9.37Z"/><path class="cls-4" d="M138.74,206.59Q143,211.11,147,216h69.86q3.93-4.85,8.21-9.37Z"/><path class="cls-4" d="M157.14,230.07q2.94,4.58,5.56,9.37h38.36q2.63-4.78,5.56-9.37Z"/><path class="cls-4" d="M126.32,194.85q5.27,4.47,10.12,9.37h90.88q4.86-4.91,10.13-9.37Z"/><path class="cls-4" d="M24.34,157.17h-.05v.09H338.46V157a156.63,156.63,0,0,1-52.78-9.13H77.62A156.78,156.78,0,0,1,24.34,157.17Z"/><path class="cls-4" d="M181.85,312.25c0,.65,0,1.3,0,1.95h0c0-.65,0-1.3,0-1.95Z"/><path class="cls-4" d="M179.74,288.77c.51,3.09.94,6.21,1.27,9.37h1.74q.5-4.74,1.28-9.37Z"/><path class="cls-4" d="M181.23,300.51c.28,3.09.48,6.22.57,9.37H182c.1-3.15.29-6.28.57-9.37Z"/><path class="cls-4" d="M177.32,277c.76,3.09,1.44,6.21,2,9.37h5.1q.87-4.74,2-9.37Z"/><path class="cls-4" d="M89.14,171.37a156.4,156.4,0,0,1,17.7,9.37H256.91a157.54,157.54,0,0,1,17.72-9.37Z"/><path class="cls-4" d="M175.69,42.23q-1.32,4.76-2.92,9.37h17.41q-1.62-4.62-2.94-9.37Z"/><path class="cls-4" d="M171.93,54q-1.74,4.77-3.78,9.37H194.8c-1.35-3.07-2.63-6.19-3.79-9.37Z"/><path class="cls-4" d="M178.47,30.49q-.93,4.74-2.14,9.38H186.6q-1.22-4.63-2.15-9.38Z"/><path class="cls-4" d="M167.09,65.71q-2.21,4.77-4.7,9.37h38.19q-2.51-4.59-4.71-9.37Z"/><path class="cls-4" d="M180.31,18.75c-.37,3.16-.83,6.28-1.39,9.38H184c-.56-3.1-1-6.22-1.4-9.38Z"/><path class="cls-4" d="M181.42,0V.08c0,1.53,0,3.05-.07,4.57h.2c-.05-1.54-.08-3.07-.08-4.62Z"/><path class="cls-4" d="M181.26,7c-.13,3.14-.36,6.27-.68,9.37h1.74c-.32-3.1-.54-6.23-.68-9.37Z"/><path class="cls-4" d="M144.77,100.93q-4.08,4.86-8.52,9.37h90.53q-4.44-4.5-8.53-9.37Z"/><path class="cls-4" d="M120.34,124.41a156.31,156.31,0,0,1-13.52,9.37H256.3a156.94,156.94,0,0,1-13.56-9.37Z"/><path class="cls-4" d="M102.87,136.15a156.43,156.43,0,0,1-19.1,9.37h195.7a157.2,157.2,0,0,1-19.21-9.37Z"/><path class="cls-4" d="M161.07,77.45c-1.81,3.2-3.74,6.32-5.76,9.37h52.37q-3-4.57-5.78-9.37Z"/><path class="cls-4" d="M133.86,112.67q-5.06,4.92-10.53,9.37H239.74q-5.49-4.44-10.56-9.37Z"/><path class="cls-4" d="M49.89,159.63A155.89,155.89,0,0,1,83.57,169H280.19a155.89,155.89,0,0,1,33.68-9.37Z"/><path class="cls-4" d="M153.71,89.19q-3.33,4.83-7,9.37H216.3q-3.68-4.55-7-9.37Z"/></g></g></svg>