<svg xmlns="http://www.w3.org/2000/svg" viewBox="0 0 1174.37 428.79"><defs><style>.cls-1{fill:#7f0000;}.cls-2{fill:#890000;}.cls-3{fill:#a80404;}.cls-4{fill:#e84d4d;}.cls-5{font-size:124.42px;fill:#727272;font-family:CantataOne-Regular, Cantata One;letter-spacing:0.04em;}</style></defs><title>Asset 2</title><g id="Layer_2" data-name="Layer 2"><g id="Layer_1-2" data-name="Layer 1"><path class="cls-1" d="M131.54,301c-39.63-4-79.35-4.2-118.78,3.24-2.16.41-5.43,3.61-6.8-.53-.36-1.1,2.48-3.74,4.31-5,27.45-18.72,58.85-24.31,91-26.64,75-5.44,147.75,8.4,219.8,26.6,121,30.57,177.66,89.43,321.18,107.23C600,432.92,276.5,315.69,131.54,301Z"/><path class="cls-2" d="M124.08,216.3c-38.29-11-77.35-18.21-117.48-17.89-2.2,0-6,2.59-6.59-1.73-.17-1.14,3.1-3.24,5.13-4.14C35.47,179,67.37,179.06,99.45,182.47c74.74,7.95,143.92,34.5,211.6,65.2,113.64,51.55,182.19,125.25,302.72,175C556.33,422.67,264.12,256.54,124.08,216.3Z"/><path class="cls-3" d="M121.71,127.1C85.86,109.72,48.62,95.93,9,89.39c-2.17-.36-6.34,1.53-6.2-2.83,0-1.15,3.61-2.66,5.76-3.2,32.2-8.17,63.62-2.65,94.65,6.2,72.28,20.61,135.9,58.59,197.34,100.41C403.73,260.18,478.18,367.59,586.7,428.79,538.83,428.79,252.81,190.69,121.71,127.1Z"/><path class="cls-4" d="M118.4,59.32C85.2,37.3,50.14,18.65,11.77,6.87,9.67,6.22,5.29,7.54,6,3.23,6.2,2.1,9.94,1.08,12.15.83c33-3.79,63.4,5.9,93,18.82C174,49.75,232,95.9,287.23,145.56c92.84,83.4,151.94,183,254.47,272.68C518.23,421.05,239.81,139.88,118.4,59.32Z"/><text class="cls-5" transform="translate(672.29 131.73)">FOUR<tspan x="0" y="120">WINDS</tspan><tspan x="0" y="240">GROUP</tspan></text></g></g></svg>